<svg width="756" height="680" xmlns="http://www.w3.org/2000/svg" xmlns:xlink="http://www.w3.org/1999/xlink" overflow="hidden"><defs><clipPath id="clip0"><rect x="0" y="0" width="756" height="680"/></clipPath></defs><g clip-path="url(#clip0)"><rect x="0" y="0" width="756" height="679.517" fill="#FFFFFF"/><path d="M26.5 131.575C26.5 74.0853 73.1379 27.4805 130.669 27.4805L627.331 27.4805C684.862 27.4805 731.5 74.0853 731.5 131.575L731.5 547.942C731.5 605.432 684.862 652.036 627.331 652.036L130.669 652.036C73.1379 652.036 26.5 605.432 26.5 547.942Z" stroke="#28272B" stroke-width="13.0029" stroke-miterlimit="8" fill="none" fill-rule="evenodd"/><path d="M108.001 276.696 318.465 276.697 383.5 83.9404 448.535 276.697 658.999 276.696 488.73 395.825 553.768 588.581 383.5 469.45 213.232 588.581 278.27 395.825Z" stroke="#C7B095" stroke-width="6.00132" stroke-miterlimit="8" stroke-dasharray="48.0106 18.004 6.00132 18.004" fill="none" fill-rule="evenodd"/><path d="M157 291.6 329.65 291.601 383 130.907 436.35 291.601 608.999 291.6 469.323 390.913 522.676 551.607 383 452.292 243.324 551.607 296.677 390.913Z" stroke="#000000" stroke-width="6.00132" stroke-miterlimit="8" fill="none" fill-rule="evenodd"/><path d="M202 308.121 340.273 308.122 383 179.872 425.727 308.122 564 308.121 452.135 387.383 494.864 515.633 383 436.369 271.136 515.633 313.865 387.383Z" stroke="#AA3E39" stroke-width="6.00132" stroke-miterlimit="8" fill="none" fill-rule="evenodd"/><path d="M251 321.735 351.84 321.735 383 227.838 414.16 321.735 515 321.735 433.419 379.766 464.58 473.663 383 415.631 301.42 473.663 332.581 379.766Z" stroke="#C7B095" stroke-width="6.00132" stroke-miterlimit="8" fill="none" fill-rule="evenodd"/><path d="M289 329.61 360.81 329.61 383 262.813 405.19 329.61 477 329.61 418.904 370.892 441.095 437.688 383 396.405 324.905 437.688 347.096 370.892Z" stroke="#000000" stroke-width="6.00132" stroke-miterlimit="8" fill="none" fill-rule="evenodd"/><path d="M325 342.009 369.308 342.009 383 300.786 396.692 342.009 441 342.009 405.154 367.486 418.846 408.709 383 383.232 347.154 408.709 360.846 367.486Z" stroke="#AA3E39" stroke-width="6.00132" stroke-miterlimit="8" fill="none" fill-rule="evenodd"/><rect x="135.5" y="336.261" width="506" height="86.9382" stroke="#28272B" stroke-width="1.33363" stroke-miterlimit="8" fill="#28272B"/><text fill="#C7B095" font-family="Montserrat,Montserrat_MSFontService,sans-serif" font-weight="700" font-size="53" transform="matrix(1 0 0 0.99929 223.183 398)">CHAMPION</text><path d="M588.5 379.73C588.5 372.28 594.544 366.24 602 366.24 609.456 366.24 615.5 372.28 615.5 379.73 615.5 387.181 609.456 393.22 602 393.22 594.544 393.22 588.5 387.181 588.5 379.73Z" stroke="#C7B095" stroke-width="1.33363" stroke-miterlimit="8" fill="#C7B095" fill-rule="evenodd"/><path d="M162.5 379.73C162.5 372.28 168.32 366.24 175.5 366.24 182.68 366.24 188.5 372.28 188.5 379.73 188.5 387.181 182.68 393.22 175.5 393.22 168.32 393.22 162.5 387.181 162.5 379.73Z" stroke="#C7B095" stroke-width="1.33363" stroke-miterlimit="8" fill="#C7B095" fill-rule="evenodd"/><path d="M0 56.9595 14.2398 0 271.557 0 285.797 56.9595Z" stroke="#FFFFFF" stroke-width="1.33268" stroke-miterlimit="8" fill="#FFFFFF" fill-rule="evenodd" transform="matrix(1.00071 0 0 -1 239.5 471.165)"/><path d="M0 44.968 11.242 0 252.57 0 263.813 44.968Z" stroke="#AA3E39" stroke-width="1.33268" stroke-miterlimit="8" fill="#AA3E39" fill-rule="evenodd" transform="matrix(1.00071 0 0 -1 251.5 463.171)"/><text fill="#28272B" font-family="Montserrat,Montserrat_MSFontService,sans-serif" font-weight="700" font-size="27" transform="matrix(1 0 0 0.99929 295.1 451)">NFT EDITION</text><path d="M0 0 92.3165 104.73" stroke="#AA3E39" stroke-width="5.99706" stroke-miterlimit="8" fill="none" fill-rule="evenodd" transform="matrix(1.00071 0 0 -1 477 240.634)"/><path d="M0 0 75.7533 50.9511" stroke="#AA3E39" stroke-width="5.99706" stroke-miterlimit="8" fill="none" fill-rule="evenodd" transform="matrix(1.00071 0 0 -1 494 252.808)"/><path d="M0 0 46.7928 84.0525" stroke="#AA3E39" stroke-width="5.99706" stroke-miterlimit="8" fill="none" fill-rule="evenodd" transform="matrix(1.00071 0 0 -1 459 225.952)"/><path d="M284.46 240.634 192 135.903" stroke="#AA3E39" stroke-width="6.00132" stroke-miterlimit="8" fill="none" fill-rule="evenodd"/><path d="M266.871 252.808 191 201.857" stroke="#AA3E39" stroke-width="6.00132" stroke-miterlimit="8" fill="none" fill-rule="evenodd"/><path d="M301.866 225.952 255 141.899" stroke="#AA3E39" stroke-width="6.00132" stroke-miterlimit="8" fill="none" fill-rule="evenodd"/><path d="M42 129.529C42 81.1716 81.2293 41.9702 129.621 41.9702L627.379 41.9702C675.771 41.9702 715 81.1716 715 129.529L715 547.989C715 596.347 675.771 635.548 627.379 635.548L129.621 635.548C81.2293 635.548 42 596.347 42 547.989Z" stroke="#28272B" stroke-width="6.00132" stroke-miterlimit="8" fill="none" fill-rule="evenodd"/></g></svg>